<svg xmlns="http://www.w3.org/2000/svg" viewBox="0 0 1600 1000">
  <defs>
    <linearGradient id="g" x1="0" y1="0" x2="1" y2="1">
      <stop offset="0" stop-color="#fff7ed"/>
      <stop offset="1" stop-color="#ffedd5"/>
    </linearGradient>
    <linearGradient id="s" x1="0" y1="0" x2="0" y2="1">
      <stop offset="0" stop-color="#0f172a" stop-opacity="0.12"/>
      <stop offset="1" stop-color="#0f172a" stop-opacity="0.02"/>
    </linearGradient>
  </defs>
  <rect width="1600" height="1000" fill="url(#g)"/>
  <circle cx="1180" cy="270" r="180" fill="#fdba74" opacity="0.35"/>
  <circle cx="1320" cy="420" r="260" fill="#fb923c" opacity="0.25"/>
  <g transform="translate(350 240)">
    <rect x="0" y="0" rx="28" ry="28" width="900" height="520" fill="white" opacity="0.9"/>
    <rect x="60" y="70" rx="18" ry="18" width="780" height="360" fill="#0f172a" opacity="0.9"/>
    <rect x="60" y="450" rx="20" ry="20" width="780" height="30" fill="url(#s)"/>
    <rect x="370" y="470" rx="10" ry="10" width="160" height="14" fill="#94a3b8" opacity="0.55"/>
    <path d="M110 345 C 230 260, 300 220, 420 190 C 540 160, 590 170, 720 120"
          fill="none" stroke="#f97316" stroke-width="10" stroke-linecap="round" opacity="0.95"/>
    <path d="M120 310 C 260 240, 340 210, 450 175 C 560 140, 640 150, 770 105"
          fill="none" stroke="#fb923c" stroke-width="10" stroke-linecap="round" opacity="0.7"/>
    <circle cx="720" cy="120" r="10" fill="#f97316"/>
    <circle cx="770" cy="105" r="10" fill="#fb923c"/>
  </g>
  <text x="120" y="170" font-family="system-ui, -apple-system, Segoe UI, Roboto" font-size="44" font-weight="800" fill="#7c2d12" opacity="0.65">
    Laptop Hosting
  </text>
  <text x="120" y="220" font-family="system-ui, -apple-system, Segoe UI, Roboto" font-size="22" font-weight="600" fill="#9a3412" opacity="0.55">
    Replace with your real hero image anytime
  </text>
</svg>
